<svg version="1.1" id="Layer_1" xmlns="http://www.w3.org/2000/svg" xmlns:xlink="http://www.w3.org/1999/xlink" x="0px" y="0px" viewBox="0 0 50 50" style="enable-background:new 0 0 504.4 504.4;" xml:space="preserve" width="50" height="50"><g><g><path d="M25.258 11.836c-7.098 0 -12.847 5.71 -12.847 12.768 0 2.776 0.912 5.393 2.458 7.494l-1.626 4.758 4.956 -1.586c2.022 1.348 4.481 2.102 7.098 2.102 7.098 0 12.887 -5.71 12.887 -12.768 -0.04 -7.058 -5.829 -12.768 -12.926 -12.768m7.534 18.041c-0.317 0.872 -1.864 1.705 -2.538 1.784s-0.674 0.555 -4.52 -0.912c-3.807 -1.507 -6.225 -5.353 -6.423 -5.63 -0.198 -0.238 -1.546 -2.022 -1.546 -3.846s0.952 -2.736 1.308 -3.093 0.753 -0.476 0.991 -0.476 0.515 0.04 0.714 0.04c0.238 0 0.515 -0.119 0.833 0.634s1.071 2.577 1.15 2.776 0.159 0.397 0.04 0.634 -0.198 0.397 -0.357 0.634c-0.198 0.198 -0.397 0.476 -0.555 0.634 -0.198 0.198 -0.397 0.397 -0.159 0.753s0.991 1.586 2.102 2.577c1.427 1.269 2.657 1.665 3.013 1.864s0.595 0.159 0.793 -0.079c0.238 -0.238 0.952 -1.071 1.19 -1.467 0.238 -0.357 0.515 -0.317 0.833 -0.198 0.357 0.119 2.181 1.031 2.577 1.229 0.357 0.198 0.634 0.278 0.714 0.436 0.119 0.079 0.119 0.833 -0.159 1.705"/></g></g><g><g><path d="M37.431 0.02H12.53C5.63 0.02 0 5.65 0 12.55v24.941c0 6.86 5.63 12.49 12.53 12.49H37.47c6.899 0 12.53 -5.63 12.53 -12.53V12.55C49.96 5.65 44.33 0.02 37.431 0.02M25.258 39.79c-2.696 0 -5.194 -0.674 -7.415 -1.903l-8.485 2.696 2.776 -8.128c-1.388 -2.3 -2.181 -4.996 -2.181 -7.851 0 -8.406 6.86 -15.186 15.305 -15.186s15.305 6.78 15.305 15.186S33.703 39.79 25.258 39.79"/></g></g></svg>